<svg xmlns="http://www.w3.org/2000/svg" xmlns:xlink="http://www.w3.org/1999/xlink" viewBox="0 0 185.64 155.11"><defs><linearGradient id="a" x1="236.83" y1="37.33" x2="237.33" y2="37.33" gradientUnits="userSpaceOnUse"><stop offset="0" stop-color="#e5dbee" stop-opacity="0.6"/><stop offset="0.51" stop-color="#e2e7f7" stop-opacity="0.5"/><stop offset="0.53" stop-color="#d7dbf6" stop-opacity="0.51"/><stop offset="0.64" stop-color="#9c9aee" stop-opacity="0.55"/><stop offset="0.76" stop-color="#716be9" stop-opacity="0.58"/><stop offset="0.87" stop-color="#584fe6" stop-opacity="0.59"/><stop offset="0.97" stop-color="#4f46e5" stop-opacity="0.6"/><stop offset="0.98" stop-color="#4f46e5" stop-opacity="0.72"/><stop offset="0.98" stop-color="#4f46e5" stop-opacity="0.84"/><stop offset="0.99" stop-color="#4f46e5" stop-opacity="0.93"/><stop offset="0.99" stop-color="#4f46e5" stop-opacity="0.98"/><stop offset="1" stop-color="#4f46e5"/></linearGradient></defs><path d="M76.2,2.33C59.41,16.2,38.75,28.14,22.25,33.67c-5.13,1.46-5.29,4.62-6.19,7.63L.89,99.19c-1.4,3.36,1.2,4.86,3.8,6.36l81.93,47.31c5.51,3.11,9.61,1.5,13.56-.42l81.3-47c3.46-1.73,4.26-3.14,3.26-5.06l-32-56.35a13.69,13.69,0,0,0-6.42-6.73L84.93,1.89C81.09-.19,78.4.15,76.2,2.33Z" style="fill:#e2e7f7;stroke:#000;stroke-linejoin:round"/><path d="M76.64,1.87a151,151,0,0,1-15.29,11.6A171.38,171.38,0,0,1,23.46,33.25c-5.16,2-2.89,3.56,6.63,9l54,30.71c7.07,4,18.89-3,25.94-6,11.76-4.94,29.88-17.69,36.31-23.9,3.51-3.39-.67-6.06-5.63-8.93L83.88,1.32C82.67.62,79.13-.29,76.64,1.87Z" style="stroke:#000;fill:url(#a)"/><path d="M2.26,101.84,90.79,153q-2.46-38.11-4.91-76.22L19,38.09Q10.61,70,2.26,101.84Z" style="fill:#e8ecf9;opacity:0.6"/><path d="M147.61,45C130.85,59,113.05,69.62,93.29,76c-2.18.88-3.22,2.33-3.1,5.27l4.31,65.79c.33,4.26,3.64,4,5.52,3.15l80.66-46.56c1.95-1.13,2.12-2.41,1.5-3.65L151,45.07c-1.32-1.67-2.8-.61-3.39-.11Z" style="fill:#f1ecff;opacity:0.5"/><path d="M88.29,82.9l3.9,62.49" style="fill:none;stroke:#000;stroke-linecap:round;stroke-linejoin:round;stroke-width:0.5px"/><ellipse cx="95.69" cy="45.9" rx="15" ry="8.5" style="fill:#fff;stroke:#4d4d4d"/></svg>