<?xml version="1.0" encoding="UTF-8"?><svg id="a" xmlns="http://www.w3.org/2000/svg" viewBox="0 0 601.71 601.71"><path d="M365.77,17.27c6.3,.71,10.12-1.03,10.22,3.95l8.15,98.76c19.12,28.27,145.04,221.61,110.94,359.98-.08,.34-.18,.66-.29,.98-1.13,3.45-29.2,84.38-142.21,82.4h-.02c-10.63-.17-21.83-1.12-33.28-2.79-41.77-6.1-71.44-26.02-88.2-59.21-38.59-76.43,6.71-194.83,16.19-217.8,14.71-37.41,63.59-153.8,107.53-169.95l-2.7-88.8c-.07-3.22,.62-6.75,2.63-9.1m7.78,150.89c-22.04,0-66.11,76.56-94.6,147.51-23.08,54.68-40.44,135.07-13.63,182.33,13.61,23.98,37.97,38.22,72.43,42.32,10.62,1.26,20.95,1.9,30.73,1.9,93.34,0,117.21-57.15,119.43-63.06,27.75-115.27-90.97-282.3-112.25-311.03-.69,.08-1.39,.09-2.09,.03h-.01Zm-24.53,319.52c-37.05,0-67.21-37.53-67.21-83.66s30.15-83.66,67.21-83.66,67.16,37.53,67.16,83.66c0,46.13-30.12,83.66-67.16,83.66Zm0-144.5c-24.71,0-44.8,27.29-44.8,60.84s20.1,60.84,44.8,60.84,44.76-27.29,44.76-60.84-20.08-60.84-44.76-60.84Z" fill="#231f20" stroke="#231f20" stroke-miterlimit="10"/><circle cx="300.85" cy="300.85" r="290.85" fill="none" stroke="#231f20" stroke-miterlimit="10" stroke-width="20"/><path d="M107.57,379.37c1.54,.3,3.16,.33,4.78,.09-1.02,2.63-1.68,5.66-.29,7.22,.84,.88,2.24,1.26,3.65,1l.39-.09c3.07-.74,6.37-4.91,12.67-13.16,5.31-6.91,11.87-15.52,16.08-17.24h0c13.26-5.9,25.99-12.68,38.06-20.26,.49,6.98,2.75,11.45,6.43,13.17h0c1.53,.71,3.36,.93,5.19,.63l15.63,6.59c-1.21,5.23,4.04,8.72,7.19,9.84,.87,.33,1.96,.11,2.66-.53,.49-.47,.91-.99,1.25-1.54,2.4,1.3,5.2,2.05,8.16,2.19,.41,0,.82-.04,1.22-.14,2.2-.53,4.39-2.52,6.25-5.78,1.37-2.43,4.6-9.87,1.72-12.16-2.44-1.95-7.83-1.27-14.66-.24l-1.94,.33c-2.03,.17-10.37-3.74-18.05-8h0c1.78-7.07,2.69-14.21,2.71-21.3,8.2-6.94,14.98-14.28,18.53-21.53,12-24.66,10.46-32.72,9.68-37.05l-.23-.96c-.27-1.14-1.65-11.51,3.69-18.31,3.32-2.9,16.1-9.63,20.8-11.99h0c.26-.14,.49-.32,.66-.53l.15-.17c.12-.18,.21-.38,.28-.57l-.02-.09c-.01-.19-.06-.38-.13-.55l-.03-.14c-.1-.24-.25-.46-.46-.64-5.77-4.7-22.72-6.84-24.63-7.06l-.24,.06c-1.23,0-30.32,.09-40.37,18.74h0c-.07,.13-.12,.27-.16,.41-.76,3.02-3.52,11.64-7.2,15.19-9.43,9.83-17.85,20.26-25.13,31.17-.09,.11-.17,.23-.24,.36-12.26,18.02-21.86,37.04-28.57,56.6-19.1,20.33-28.38,32.15-27.34,35.02,.25,.74,.95,1.28,1.85,1.43h0ZM236.08,224.02c4.78,.66,9.44,1.64,13.96,2.94-4.52,.32-9.04,.86-13.53,1.63-.84-1.37-.99-3-.42-4.57h0Zm-17.11,9.47h0c-.15-.62,.18-1.3,.84-1.71,.66-.41,1.51-.48,2.16-.16,.65,.31,.98,.94,.82,1.58-.16,.65-.76,1.19-1.54,1.38-1.04,.23-2.03-.26-2.24-1.1h-.04Zm-84.21,113.23c-3.03,10.96-17.94,26.15-20.08,28.32-1.33,.62-2.81,.93-4.27,.89,2.09-4.16,13.23-17.14,24.42-29.14l-.07-.08Z" fill="#231f20" stroke="#231f20" stroke-miterlimit="10" stroke-width="10"/></svg>